<svg width="21" height="21" viewBox="0 0 21 21" fill="none" xmlns="http://www.w3.org/2000/svg">
<path d="M6.3 0.46582H14.7C17.9 0.46582 20.5 3.06582 20.5 6.26582V14.6658C20.5 16.2041 19.8889 17.6793 18.8012 18.767C17.7135 19.8548 16.2383 20.4658 14.7 20.4658H6.3C3.1 20.4658 0.5 17.8658 0.5 14.6658V6.26582C0.5 4.72756 1.11107 3.25231 2.19878 2.1646C3.28649 1.07689 4.76174 0.46582 6.3 0.46582ZM6.1 2.46582C5.14522 2.46582 4.22955 2.84511 3.55442 3.52024C2.87928 4.19537 2.5 5.11104 2.5 6.06582V14.8658C2.5 16.8558 4.11 18.4658 6.1 18.4658H14.9C15.8548 18.4658 16.7705 18.0865 17.4456 17.4114C18.1207 16.7363 18.5 15.8206 18.5 14.8658V6.06582C18.5 4.07582 16.89 2.46582 14.9 2.46582H6.1ZM15.75 3.96582C16.0815 3.96582 16.3995 4.09752 16.6339 4.33194C16.8683 4.56636 17 4.8843 17 5.21582C17 5.54734 16.8683 5.86528 16.6339 6.0997C16.3995 6.33412 16.0815 6.46582 15.75 6.46582C15.4185 6.46582 15.1005 6.33412 14.8661 6.0997C14.6317 5.86528 14.5 5.54734 14.5 5.21582C14.5 4.8843 14.6317 4.56636 14.8661 4.33194C15.1005 4.09752 15.4185 3.96582 15.75 3.96582ZM10.5 5.46582C11.8261 5.46582 13.0979 5.9926 14.0355 6.93029C14.9732 7.86797 15.5 9.13974 15.5 10.4658C15.5 11.7919 14.9732 13.0637 14.0355 14.0014C13.0979 14.939 11.8261 15.4658 10.5 15.4658C9.17392 15.4658 7.90215 14.939 6.96447 14.0014C6.02678 13.0637 5.5 11.7919 5.5 10.4658C5.5 9.13974 6.02678 7.86797 6.96447 6.93029C7.90215 5.9926 9.17392 5.46582 10.5 5.46582ZM10.5 7.46582C9.70435 7.46582 8.94129 7.78189 8.37868 8.3445C7.81607 8.90711 7.5 9.67017 7.5 10.4658C7.5 11.2615 7.81607 12.0245 8.37868 12.5871C8.94129 13.1497 9.70435 13.4658 10.5 13.4658C11.2956 13.4658 12.0587 13.1497 12.6213 12.5871C13.1839 12.0245 13.5 11.2615 13.5 10.4658C13.5 9.67017 13.1839 8.90711 12.6213 8.3445C12.0587 7.78189 11.2956 7.46582 10.5 7.46582Z" fill="white"/>
</svg>
