<svg width="64" height="55" viewBox="0 0 64 55" fill="none" xmlns="http://www.w3.org/2000/svg">
<path d="M15.9025 40.109C17.3743 41.0651 18.8116 42.001 20.3265 42.983C20.1052 43.1529 19.9413 43.2882 19.7688 43.4092C19.4153 43.6597 19.4124 43.7058 19.7228 44.0254C21.6718 46.024 23.983 46.6287 26.6564 45.8281C27.7315 45.5056 28.7577 45.0823 29.5626 44.2529C30.0513 43.749 30.3502 43.1615 30.3847 42.4531C30.4192 41.7677 30.4508 41.0794 30.4537 40.3912C30.4537 40.0917 30.5514 39.988 30.8389 40.0283C30.9539 40.0456 31.0717 40.037 31.1896 40.0341C31.8019 40.0255 31.8076 39.9189 31.8076 40.6705C31.8105 44.6964 31.8163 48.7194 31.8191 52.7452C31.8191 52.9468 31.8191 53.1484 31.8191 53.4623C30.8906 52.4659 29.8673 51.8208 28.7634 51.2996C27.1163 50.5221 25.3657 50.0441 23.6265 49.5228C21.7437 48.9613 19.9269 48.2442 18.3718 46.9944C17.7422 46.4876 17.1673 45.926 16.7936 45.1946C16.6585 44.9297 16.4314 44.9383 16.1957 44.9412C15.3161 44.9556 15.4771 44.9498 15.5231 44.2356C15.6093 42.9398 15.7415 41.6496 15.8536 40.3566C15.8594 40.2933 15.8795 40.2328 15.9083 40.1061L15.9025 40.109Z" fill="white"/>
<path d="M32.808 53.3011C32.7936 53.062 32.7764 52.8979 32.7764 52.7366C32.7764 48.7511 32.7792 44.7627 32.7821 40.7771C32.7821 40.6216 32.7764 40.4632 32.7994 40.3106C32.8109 40.2328 32.8799 40.1061 32.9287 40.1033C33.2622 40.086 33.5985 40.0773 33.9291 40.1119C33.9837 40.1177 34.0498 40.3423 34.0556 40.4661C34.0843 41.114 34.0987 41.762 34.1131 42.4099C34.1361 43.4466 34.6621 44.227 35.467 44.7771C37.1774 45.9462 39.0832 46.4646 41.1443 46.0845C42.5356 45.8282 43.6452 45.0132 44.5967 43.9823C44.7778 43.7864 44.7548 43.6136 44.5593 43.4524C44.4702 43.3775 44.3754 43.3113 44.2834 43.2364C44.2058 43.173 44.1281 43.1039 43.993 42.9887C45.393 42.0471 46.7613 41.1284 48.1813 40.1752C48.2302 40.3855 48.2704 40.4949 48.2791 40.6072C48.3739 41.9146 48.4544 43.222 48.5608 44.5294C48.5866 44.8462 48.4745 44.9758 48.1756 44.9268C47.6553 44.8433 47.3937 45.0823 47.1062 45.52C46.4767 46.4761 45.6201 47.2076 44.614 47.7921C43.6337 48.3623 42.619 48.8346 41.5525 49.1974C40.6988 49.4912 39.822 49.7216 38.9654 50.0067C36.9819 50.6604 35.0214 51.3601 33.403 52.7539C33.2191 52.9123 33.0495 53.0822 32.808 53.3068V53.3011Z" fill="white"/>
<path d="M20.2486 29.7592C20.2658 29.5864 20.2945 29.4136 20.2945 29.2408C20.306 27.0983 20.3204 24.9529 20.3089 22.8104C20.3089 22.4216 20.4153 22.2747 20.812 22.3035C21.2777 22.3352 21.7462 22.3237 22.2119 22.3122C22.4792 22.3035 22.5827 22.4043 22.5799 22.6722C22.5741 23.5677 22.5856 24.4633 22.5856 25.3618C22.5885 27.7002 22.6086 30.0385 22.5799 32.3768C22.5741 32.8693 22.4879 33.3992 22.2866 33.8398C21.9187 34.649 21.0132 34.8217 20.3348 34.2487C20.0445 34.0039 19.8059 33.6756 19.6161 33.3444C18.5152 31.4323 17.4372 29.5086 16.3506 27.5879C16.2414 27.392 16.112 27.2077 15.9942 27.0177L15.8907 27.0465C15.882 27.1933 15.8677 27.3373 15.8677 27.4842C15.8677 29.6411 15.8677 31.798 15.8677 33.9521C15.8677 34.2919 15.6971 34.4637 15.356 34.4675C14.8903 34.4704 14.4217 34.4445 13.9561 34.4791C13.5651 34.5078 13.4415 34.3869 13.4444 33.9866C13.4616 31.6368 13.453 29.284 13.453 26.9342C13.453 25.9464 13.4501 24.9587 13.4501 23.9738C13.4501 22.9227 13.6629 22.5454 14.3643 22.3439C15.1404 22.1221 16.1264 22.4936 16.5403 23.1847C16.799 23.6196 17.029 24.0688 17.2705 24.5152C18.1731 26.1825 19.0728 27.847 19.9755 29.5144C20.0243 29.6037 20.0847 29.6843 20.1393 29.7678C20.1767 29.7678 20.2112 29.762 20.2486 29.7592Z" fill="white"/>
<path d="M52.6426 34.4703C52.8064 33.9491 52.9415 33.4941 53.091 33.0449C54.1201 29.9261 55.1492 26.8102 56.1841 23.6944C56.3537 23.1789 56.5951 22.7037 57.1298 22.4676C57.9721 22.0961 58.8057 22.3985 59.1995 23.2711C59.4812 23.896 59.6796 24.5583 59.8952 25.2091C60.8553 28.1176 61.8097 31.0262 62.764 33.9376C62.8158 34.0931 62.8359 34.2543 62.8819 34.4646C62.0914 34.4646 61.3555 34.4761 60.6225 34.4502C60.519 34.4473 60.3781 34.2774 60.3321 34.1536C60.0734 33.4739 59.8262 32.7914 59.602 32.1003C59.4985 31.7835 59.3346 31.6338 58.9897 31.6424C58.1618 31.6597 57.331 31.6568 56.5003 31.6453C56.2186 31.6424 56.0806 31.7663 55.9944 32.0226C55.7644 32.7252 55.5057 33.4192 55.2786 34.1248C55.1981 34.3782 55.063 34.4732 54.8014 34.4703C54.1057 34.4588 53.413 34.4675 52.6455 34.4675L52.6426 34.4703ZM57.8111 25.8714C57.7191 25.9982 57.676 26.0356 57.6645 26.0788C57.354 27.2537 57.0436 28.4315 56.736 29.6065C56.6728 29.8426 56.805 29.9088 57.0062 29.9088C57.5093 29.9088 58.0152 29.8973 58.5183 29.9175C58.8747 29.9319 58.9379 29.7994 58.846 29.4769C58.547 28.4315 58.2682 27.3804 57.9807 26.3351C57.9433 26.2026 57.8887 26.0788 57.814 25.8714H57.8111Z" fill="white"/>
<path d="M11.9579 34.4617C11.1386 34.4617 10.3912 34.4732 9.64672 34.4473C9.54611 34.4444 9.411 34.263 9.36501 34.1363C9.1063 33.4423 8.85908 32.7454 8.63199 32.0427C8.53713 31.7432 8.36753 31.6338 8.06569 31.6395C7.23781 31.6511 6.40705 31.6511 5.57629 31.6395C5.28021 31.6367 5.1336 31.7662 5.04449 32.0398C4.81165 32.7425 4.55006 33.4336 4.31722 34.1363C4.23386 34.3868 4.09588 34.479 3.83429 34.4732C3.15013 34.4588 2.46598 34.4674 1.70996 34.4674C1.7962 34.1564 1.85657 33.9001 1.93993 33.6467C3.03515 30.3321 4.13037 27.0205 5.23422 23.7088C5.42681 23.1299 5.69703 22.6029 6.34956 22.41C7.15732 22.1681 7.85872 22.4474 8.23242 23.2192C8.43939 23.6483 8.57737 24.1119 8.72972 24.5669C9.73871 27.6223 10.7419 30.6777 11.7452 33.736C11.817 33.952 11.8745 34.1737 11.9579 34.4617ZM6.84974 25.8714C6.77212 25.9981 6.71751 26.0557 6.70026 26.122C6.39555 27.2854 6.09659 28.4517 5.79189 29.6151C5.72865 29.8599 5.85513 29.9146 6.05635 29.9146C6.58528 29.9146 7.11708 29.9146 7.646 29.9203C7.94496 29.9232 7.9852 29.7936 7.90759 29.5287C7.60001 28.4459 7.30967 27.3603 7.00784 26.2746C6.97622 26.1565 6.91873 26.0471 6.84974 25.8714Z" fill="white"/>
<path d="M45.9071 27.7836C46.4878 27.4985 47.0225 27.2653 47.5284 26.9802C48.0516 26.6864 48.5489 26.3524 48.6552 25.6785C48.7587 25.0191 48.3017 24.3538 47.6405 24.3135C46.942 24.2703 46.2406 24.2991 45.5421 24.2991C45.2431 24.2991 45.2287 24.5036 45.2287 24.7282C45.2345 27.6511 45.2345 30.5741 45.2488 33.4941C45.2546 34.4675 45.2718 34.4675 44.2887 34.4703C44.0041 34.4703 43.7167 34.4646 43.4321 34.479C43.1763 34.4934 43.0929 34.3868 43.0958 34.1363C43.1073 33.4999 43.0958 32.8635 43.0958 32.227C43.0958 29.3185 43.0958 26.4071 43.0958 23.4986C43.0958 22.8017 43.2453 22.6058 43.9352 22.4676C44.2255 22.41 44.5273 22.3927 44.8234 22.3899C45.8468 22.3841 46.873 22.4071 47.8963 22.3899C49.9517 22.3524 51.1791 23.9881 50.6761 26.0903C50.4202 27.1558 49.8108 27.9737 48.776 28.4056C48.4598 28.5381 48.4598 28.7022 48.5748 28.9758C49.2733 30.6259 49.9603 32.2789 50.6502 33.9318C50.7135 34.0816 50.7623 34.24 50.8428 34.4617C50.1012 34.4617 49.4199 34.4675 48.7386 34.4531C48.661 34.4531 48.5489 34.3523 48.5173 34.2716C47.6434 32.1205 46.781 29.9664 45.9014 27.7807L45.9071 27.7836Z" fill="white"/>
<path d="M41.1755 28.492C41.1755 29.4798 41.1726 30.4646 41.1755 31.4524C41.1812 32.826 40.4683 33.8857 39.1719 34.3206C38.0479 34.6978 36.8981 34.6806 35.7655 34.3523C34.6617 34.0355 33.5578 32.8145 33.6239 31.3948C33.7159 29.4394 33.7073 27.4726 33.6297 25.5144C33.5751 24.1523 34.6243 22.9975 35.57 22.6894C36.9901 22.2286 38.4417 22.1278 39.7756 22.9428C40.6926 23.5014 41.2588 24.3135 41.1899 25.4913C41.1295 26.4877 41.1784 27.4899 41.1784 28.4891L41.1755 28.492ZM38.9822 28.5237H38.9879C38.9879 27.5619 38.985 26.6029 38.9879 25.6411C38.9908 25.0651 38.712 24.685 38.2089 24.4489C37.6541 24.1897 37.1079 24.2099 36.5618 24.4892C36.1162 24.7167 35.869 25.0651 35.869 25.572C35.869 27.5331 35.8632 29.4942 35.8661 31.4553C35.8661 31.8325 36.0328 32.1291 36.3404 32.348C36.8521 32.7108 37.4098 32.7915 38.0048 32.61C38.6918 32.3998 38.9793 32.011 38.9822 31.2911C38.9879 30.3696 38.9822 29.4481 38.9822 28.5237Z" fill="white"/>
<path d="M32.1347 2.4939C32.1347 2.87978 32.1347 3.19943 32.1347 3.5162C32.1347 4.28221 32.152 5.04822 32.1204 5.81423C32.1117 5.99853 31.9939 6.23179 31.8502 6.35274C31.3816 6.74438 31.2609 7.03235 31.5541 7.5651C31.7984 8.00858 31.8559 8.4607 31.853 8.94738C31.8358 12.2331 31.8329 15.5189 31.8185 18.8047C31.8185 19.0005 31.7898 19.3403 31.7036 19.3634C31.4276 19.4411 31.1171 19.4181 30.8239 19.395C30.7751 19.3922 30.7089 19.1848 30.7061 19.0725C30.6974 18.4764 30.6974 17.8774 30.7118 17.2813C30.7204 16.9732 30.6198 16.8378 30.2892 16.8407C29.0445 16.8551 27.7998 16.8551 26.5551 16.8465C26.2533 16.8465 26.1096 16.9214 26.0952 17.2554C26.078 17.6989 25.9285 17.8083 25.4944 17.696C24.4883 17.4311 23.6834 16.858 23.1315 15.9768C22.7003 15.2885 22.8354 14.5571 23.5454 14.1568C24.2727 13.7479 25.0776 13.4772 25.8566 13.1633C25.9285 13.1345 26.1211 13.2238 26.147 13.2987C26.3051 13.7652 26.558 13.8631 27.0726 13.8199C28.0241 13.7393 28.9871 13.8199 29.9472 13.8343C30.0909 13.8343 30.2318 13.8343 30.3755 13.84C30.6802 13.8573 30.7636 13.7133 30.7751 13.4167C30.8325 11.8501 30.5451 10.3469 30.0133 8.88114C29.7919 8.27352 29.6223 7.64286 29.4671 7.01508C29.4182 6.82213 29.4297 6.55432 29.5304 6.39305C30.3295 5.12021 31.1574 3.86177 31.9795 2.60333C31.991 2.58317 32.0198 2.57453 32.1376 2.49678L32.1347 2.4939Z" fill="white"/>
<path d="M32.5895 2.64941C32.8856 3.09577 33.1903 3.53925 33.4778 3.99425C33.9808 4.79193 34.481 5.5925 34.9553 6.41034C35.0473 6.56585 35.0789 6.81063 35.0301 6.98629C34.6937 8.22457 34.2568 9.43982 33.9952 10.6925C33.8026 11.6227 33.8141 12.596 33.7566 13.5492C33.7422 13.8084 33.9607 13.8372 34.1734 13.8343C35.1853 13.8257 36.1943 13.8228 37.2061 13.817C37.3096 13.817 37.4275 13.7911 37.5137 13.8285C37.9334 14.0128 38.1001 13.7249 38.2007 13.4282C38.2812 13.1979 38.4048 13.1144 38.5946 13.1892C39.2988 13.4743 40.0376 13.7105 40.6786 14.105C41.6186 14.6809 41.564 15.5362 40.8971 16.3512C40.3682 16.9934 39.7099 17.457 38.8906 17.6701C38.5026 17.7709 38.3473 17.6874 38.3244 17.29C38.3042 16.953 38.149 16.8494 37.8299 16.8494C36.637 16.858 35.444 16.8523 34.251 16.8436C33.9435 16.8436 33.7997 16.9386 33.8112 17.2727C33.8314 17.8429 33.7969 18.4159 33.8227 18.9861C33.8429 19.467 33.518 19.4037 33.2248 19.4267C32.9259 19.4469 32.739 19.3893 32.739 19.0149C32.739 15.4959 32.7189 11.9769 32.7275 8.45783C32.7275 8.19002 32.8827 7.91644 32.9977 7.66015C33.2708 7.06116 33.1932 6.73863 32.6671 6.31819C32.5752 6.24332 32.4745 6.11085 32.4717 6.0043C32.4573 4.90424 32.463 3.80419 32.463 2.70413C32.5033 2.68685 32.5464 2.67245 32.5867 2.65517L32.5895 2.64941Z" fill="white"/>
<path d="M31.7159 31.127C31.7791 32.5294 31.0892 34.2832 28.87 34.5337C27.5621 34.6806 26.3059 34.479 25.2136 33.6669C24.5467 33.1716 24.2304 32.515 24.2448 31.6569C24.2764 29.5662 24.2851 27.4755 24.2448 25.3848C24.2247 24.3567 24.653 23.6253 25.4895 23.1242C26.8435 22.315 28.298 22.1537 29.7899 22.6606C30.9283 23.0493 31.7418 24.2991 31.7418 25.5086C31.7418 25.7736 31.6383 25.8456 31.3968 25.8398C30.9829 25.8283 30.5661 25.8225 30.1521 25.8427C29.8589 25.8571 29.7267 25.762 29.6404 25.4626C29.2955 24.2963 27.7605 23.8528 26.8607 24.6735C26.6451 24.8693 26.464 25.2235 26.4583 25.5086C26.4238 27.4956 26.4295 29.4827 26.4525 31.4697C26.4554 31.7173 26.5819 32.0139 26.7515 32.1982C27.5966 33.1226 29.2696 32.7483 29.6318 31.5503C29.7353 31.2047 29.8963 31.1039 30.2297 31.1212C30.7184 31.1443 31.2071 31.127 31.7188 31.127H31.7159Z" fill="white"/>
<path d="M10.167 21.5663C9.43395 21.5663 8.77567 21.5778 8.11739 21.5577C7.99665 21.5548 7.85867 21.4511 7.76669 21.3561C7.52522 21.1056 7.29525 20.8378 7.07678 20.5671C6.91293 20.3655 6.74621 20.2791 6.60822 20.5613C5.95857 21.8889 4.78286 21.5836 3.59277 21.5346C3.86011 21.1545 4.0872 20.8205 4.3258 20.4951C4.75698 19.9105 5.18243 19.3201 5.63949 18.7586C5.7516 18.6175 5.97006 18.5023 6.14829 18.4879C6.63697 18.4505 7.13428 18.4591 7.62296 18.485C7.76956 18.4937 7.95928 18.5772 8.0484 18.6924C8.72393 19.562 9.38221 20.4461 10.0434 21.3273C10.0807 21.3763 10.1009 21.4367 10.167 21.5692V21.5663Z" fill="white"/>
<path d="M44.1829 37.1083C44.2317 37.3387 44.3812 37.6238 44.2978 37.7821C44.2059 37.9578 43.9012 38.1018 43.6798 38.1162C42.8174 38.1709 42.8174 38.1507 42.8117 37.2926C42.8117 37.1371 42.7916 36.9787 42.8117 36.8289C42.8404 36.6158 42.895 36.2242 42.9439 36.2242C43.332 36.2184 43.7632 36.1954 44.0966 36.3567C44.4243 36.5122 44.2145 36.8491 44.0363 37.091C44.0851 37.0968 44.1311 37.1025 44.18 37.1083H44.1829ZM43.516 37.9232C43.766 37.9146 44.0506 37.8944 44.0363 37.5604C44.0219 37.2062 43.7114 37.2264 43.4527 37.2091C43.2055 37.1947 43.079 37.2638 43.079 37.5518C43.079 37.8829 43.2371 37.952 43.5188 37.9204L43.516 37.9232ZM43.47 37.0017C43.493 37.0305 43.516 37.0593 43.539 37.091C43.6798 36.9672 43.9241 36.8549 43.9414 36.7166C43.973 36.4287 43.7086 36.4027 43.4757 36.4056C43.2831 36.4085 43.0848 36.3826 43.079 36.685C43.0733 36.9816 43.2256 37.0363 43.47 37.0017Z" fill="white"/>
<path d="M26.5524 38.2055C26.2706 38.1882 25.9084 38.1882 25.552 38.1393C25.0662 38.0759 24.796 37.6008 24.8707 37.0018C24.9426 36.423 25.2875 36.1148 25.8251 36.1465C26.3425 36.1753 26.6731 36.5698 26.6645 37.1659C26.6645 37.307 26.6098 37.4453 26.5955 37.5864C26.5753 37.7851 26.5667 37.9838 26.5524 38.2055ZM25.8136 37.6958C26.0033 37.6497 26.193 37.6612 26.2764 37.572C26.4661 37.3704 26.4 36.8204 26.1902 36.5957C25.9947 36.3884 25.7705 36.3078 25.4974 36.4662C25.1984 36.6418 25.0604 37.0939 25.2013 37.4971C25.3048 37.7908 25.4916 37.9723 25.8538 37.9147C25.8337 37.8139 25.8193 37.7304 25.8136 37.6958Z" fill="white"/>
<path d="M8.82496 36.9008C8.80484 37.304 8.78471 37.7071 8.76747 38.1103C8.71285 38.1103 8.65823 38.1103 8.60361 38.1074C8.59212 37.9404 8.56912 37.7734 8.56912 37.6092C8.56912 37.2464 8.56337 36.8835 8.58349 36.5207C8.58924 36.4141 8.66973 36.3105 8.71572 36.2068C8.81059 36.2817 8.93132 36.3364 8.99456 36.4343C9.20728 36.7683 9.40275 37.1139 9.6011 37.4566C9.64422 37.4508 9.68446 37.4451 9.72758 37.4393C9.73908 37.1456 9.73908 36.8518 9.76495 36.5581C9.77358 36.4429 9.83394 36.3335 9.87131 36.2241C9.92305 36.3364 10.0122 36.4458 10.0179 36.5581C10.0352 36.9843 10.0294 37.4134 10.015 37.8396C10.0122 37.9375 9.93168 38.0297 9.88568 38.1247C9.79082 38.07 9.66147 38.0383 9.60685 37.9577C9.37688 37.6035 9.16991 37.2348 8.95432 36.872C8.9112 36.8806 8.86808 36.8922 8.82496 36.9008Z" fill="white"/>
<path d="M15.7933 37.2781C15.9744 37.5546 16.1353 37.7994 16.2963 38.0413C16.2676 38.0787 16.2388 38.1161 16.2101 38.1536C16.0951 38.0758 15.9629 38.0182 15.8738 37.9203C15.7358 37.7677 15.6495 37.5661 15.5029 37.425C15.4138 37.3386 15.2557 37.281 15.135 37.2896C15.0804 37.2925 15.0229 37.4883 14.9999 37.6064C14.9683 37.7734 14.9683 37.9462 14.9568 38.119C14.9136 38.1248 14.8705 38.1334 14.8303 38.1392C14.7929 38.0499 14.7268 37.9635 14.7268 37.8742C14.721 37.4077 14.7383 36.9383 14.7268 36.4718C14.7239 36.2472 14.8159 36.1666 15.0258 36.1781C15.2471 36.1896 15.4656 36.1982 15.6869 36.204C15.9255 36.2097 16.1727 36.276 16.1785 36.538C16.1842 36.7396 16.0549 36.947 15.9686 37.1457C15.9485 37.1975 15.8709 37.2234 15.7933 37.2781ZM15.3765 37.0679C15.6035 37.0362 15.9198 37.0967 15.9198 36.7396C15.9198 36.4228 15.6495 36.42 15.4109 36.4142C15.1925 36.4084 14.997 36.4056 14.9941 36.7166C14.9941 36.9902 15.1177 37.0909 15.3765 37.065V37.0679Z" fill="white"/>
<path d="M50.058 37.137C50.058 36.9815 50.058 36.826 50.058 36.6705C50.058 36.3384 50.2304 36.1762 50.5754 36.1839C51.4349 36.204 51.8805 37.0219 51.4464 37.785C51.2825 38.0758 51.0094 38.1306 50.7162 38.1277C49.9458 38.1219 50.0436 38.2141 50.0465 37.4855C50.0465 37.3703 50.0465 37.2522 50.0465 37.137H50.0551H50.058ZM51.3055 37.0391C51.2854 36.9729 51.2768 36.7368 51.1618 36.6532C50.9836 36.5237 50.7306 36.4689 50.5064 36.4517C50.4546 36.4488 50.3454 36.7224 50.3282 36.875C50.2994 37.1169 50.3339 37.3645 50.3282 37.6093C50.3224 37.8455 50.4374 37.9261 50.6587 37.9261C51.0957 37.9261 51.3084 37.6784 51.3055 37.0363V37.0391Z" fill="white"/>
<path d="M14.2755 37.1801C14.2697 37.8252 13.9679 38.1535 13.3843 38.1563C12.8181 38.1563 12.4702 37.782 12.4817 37.183C12.4932 36.5408 12.8353 36.152 13.3872 36.1492C13.9535 36.1492 14.2812 36.5264 14.2755 37.1801ZM14.011 37.1571C14.011 36.7309 13.7494 36.3939 13.4073 36.3824C13.0681 36.3709 12.7721 36.7338 12.7663 37.1686C12.7606 37.5833 13.0336 37.926 13.3757 37.9375C13.7322 37.949 14.0081 37.6121 14.011 37.1571Z" fill="white"/>
<path d="M54.0479 37.1571C54.0479 37.0794 54.0249 36.9901 54.0508 36.9268C54.1571 36.6791 53.7719 36.2183 54.3583 36.1838C55.2178 36.1377 55.4967 36.3191 55.58 36.9555C55.7008 37.8857 55.0885 38.4041 54.1887 38.119C54.1226 38.0988 54.0536 37.975 54.045 37.8943C54.0278 37.6496 54.0393 37.4019 54.0393 37.1571H54.0479ZM54.3238 37.1427C54.3238 37.2723 54.3353 37.4019 54.3238 37.5315C54.2836 37.9087 54.4963 37.9721 54.801 37.9289C55.238 37.8655 55.4449 37.3645 55.2667 36.8058C55.1747 36.5149 54.893 36.3652 54.5538 36.4228C54.2376 36.4746 54.344 36.7223 54.3267 36.9124C54.321 36.9901 54.3267 37.0679 54.3267 37.1456L54.3238 37.1427Z" fill="white"/>
<path d="M31.0945 36.6878C30.991 36.6244 30.8904 36.5496 30.7811 36.5035C30.646 36.4488 30.4965 36.3825 30.3586 36.3912C30.2723 36.3969 30.1458 36.5236 30.1315 36.61C30.12 36.682 30.2263 36.8145 30.3097 36.8577C30.4822 36.9441 30.6748 36.9873 30.8587 37.0506C31.1376 37.1457 31.2928 37.33 31.2554 37.6352C31.2209 37.9318 31.0312 38.1017 30.7466 38.1392C30.4189 38.1852 30.0883 38.1766 29.8728 37.8656C29.8268 37.7994 29.8526 37.6784 29.8469 37.5834C29.9302 37.6122 30.0251 37.6295 30.097 37.6784C30.1803 37.7331 30.2321 37.8483 30.3183 37.8857C30.5569 37.9837 30.8012 37.9664 30.9191 37.7101C31.0456 37.4336 30.807 37.3559 30.6115 37.281C30.4563 37.2205 30.2551 37.2205 30.143 37.1169C30.005 36.993 29.8354 36.7742 29.8584 36.6273C29.8871 36.4574 30.0883 36.2529 30.2608 36.1867C30.6661 36.0283 31.0197 36.2184 31.0916 36.6849L31.0945 36.6878Z" fill="white"/>
<path d="M23.0576 37.4652C23.2157 37.6092 23.2905 37.7186 23.3911 37.759C23.5693 37.8309 23.7648 37.8943 23.9545 37.8914C24.0321 37.8914 24.1528 37.7186 24.1701 37.6121C24.1816 37.5315 24.081 37.3932 23.9947 37.3472C23.851 37.2694 23.6785 37.2464 23.5176 37.1916C23.2531 37.1024 23.0404 36.9555 23.0691 36.6387C23.0979 36.3076 23.3307 36.1837 23.6297 36.1521C24.0551 36.106 24.2994 36.2615 24.3771 36.7021C24.2362 36.6272 24.1442 36.5667 24.0436 36.5293C23.897 36.4746 23.7418 36.4026 23.5894 36.4026C23.5089 36.4026 23.3767 36.5351 23.3623 36.6215C23.3508 36.6935 23.4629 36.8202 23.5492 36.8662C23.7073 36.9469 23.8884 36.9843 24.0609 37.0419C24.3627 37.1398 24.5064 37.3443 24.4719 37.661C24.4374 37.9663 24.2333 38.1074 23.9516 38.1506C23.4054 38.237 23.0777 38.0325 23.0576 37.4681V37.4652Z" fill="white"/>
<path d="M35.0093 36.7455C34.8397 36.636 34.7592 36.564 34.6643 36.5295C34.5091 36.4748 34.3424 36.4143 34.1814 36.4201C34.1124 36.4201 34.0463 36.5784 33.9773 36.662C34.1181 36.7627 34.2475 36.8779 34.3999 36.9586C34.5235 37.0248 34.6787 37.0277 34.8052 37.091C35.1271 37.2494 35.245 37.7447 34.9662 37.9348C34.7477 38.0845 34.42 38.1335 34.1411 38.1306C33.8681 38.1306 33.6956 37.9118 33.6927 37.546C33.7876 37.6036 33.8824 37.6699 33.983 37.7217C34.1383 37.7995 34.2964 37.9175 34.4545 37.9175C34.5695 37.9175 34.7506 37.7707 34.7764 37.6583C34.7994 37.5633 34.6672 37.3934 34.558 37.3185C34.4487 37.2408 34.2877 37.2437 34.1526 37.1976C33.8738 37.1026 33.6525 36.9499 33.6985 36.613C33.7445 36.2847 33.9888 36.1724 34.2849 36.1522C34.7074 36.1234 34.9173 36.2646 35.0064 36.7455H35.0093Z" fill="white"/>
<path d="M57.3077 37.2119C57.1007 37.2119 56.8909 37.2234 56.6839 37.2119C56.3936 37.1917 56.3418 37.353 56.339 37.5978C56.3332 37.8598 56.4597 37.9376 56.6983 37.9261C56.9282 37.9146 57.1582 37.9261 57.3882 37.9261C57.3968 37.9693 57.4054 38.0125 57.4141 38.0557C57.2761 38.0816 57.1381 38.1277 56.9972 38.1334C56.0572 38.1709 56.0572 38.168 56.0572 37.2465C56.0572 37.1831 56.0515 37.1169 56.0572 37.0535C56.0831 36.7771 56.0659 36.2817 56.1492 36.2645C56.5431 36.181 56.9627 36.227 57.3738 36.227C57.3738 36.2789 57.3796 36.3307 57.3824 36.3797C57.1582 36.3969 56.9311 36.3883 56.7155 36.4373C56.5833 36.4689 56.4022 36.5611 56.362 36.6705C56.2901 36.8577 56.3706 37.0247 56.6322 37.0103C56.8564 36.9988 57.0806 37.0103 57.3048 37.0103C57.3048 37.0794 57.3077 37.1514 57.3106 37.2205L57.3077 37.2119Z" fill="white"/>
<path d="M18.3712 38.1536C17.9371 38.0758 17.894 37.6266 17.4542 37.6208C16.9942 37.6151 16.9799 38.0902 16.54 38.1622C16.678 37.7878 16.793 37.4826 16.9051 37.1773C17.0028 36.9095 17.0948 36.6388 17.2041 36.3768C17.2989 36.1435 17.5519 36.0888 17.641 36.2904C17.894 36.875 18.1096 37.4797 18.3712 38.1564V38.1536ZM17.1035 37.4336C17.3679 37.4192 17.5433 37.4106 17.7819 37.3991C17.6698 37.0909 17.5864 36.8548 17.5002 36.6216C17.4599 36.6273 17.4225 36.6302 17.3823 36.6359C17.3018 36.8692 17.2184 37.0996 17.1035 37.4336Z" fill="white"/>
<path d="M8.19832 38.1306C7.91661 38.0586 6.60292 38.0557 6.41895 38.145C6.46781 37.9664 6.49368 37.8397 6.5368 37.7216C6.69491 37.2839 6.85301 36.8433 7.02836 36.4114C7.06573 36.3221 7.17209 36.2242 7.26408 36.204C7.33307 36.1867 7.47392 36.2674 7.50267 36.3394C7.73551 36.9096 7.9511 37.4913 8.19832 38.1306ZM7.52279 37.451C7.55154 37.4135 7.58028 37.3732 7.60615 37.3358C7.50554 37.0996 7.40781 36.8606 7.3072 36.6245C7.25833 36.6302 7.21233 36.6389 7.16347 36.6446C7.11747 36.8836 7.07148 37.1255 7.02549 37.3646C7.18934 37.3934 7.35606 37.4222 7.51992 37.451H7.52279Z" fill="white"/>
<path d="M27.306 36.2012C27.3261 36.3135 27.3606 36.4287 27.3635 36.5439C27.375 36.8549 27.3577 37.1659 27.3778 37.474C27.398 37.7533 27.5503 37.9348 27.8521 37.9319C28.154 37.9319 28.2488 37.7217 28.2575 37.4654C28.269 37.1284 28.2546 36.7915 28.2747 36.4575C28.2805 36.3711 28.3753 36.2904 28.4299 36.2069C28.4673 36.2904 28.5392 36.374 28.542 36.4575C28.5507 36.8318 28.5593 37.2091 28.5363 37.5834C28.5104 37.9952 28.3092 38.1536 27.8665 38.1594C27.3951 38.1651 27.1536 38.0096 27.1277 37.6094C27.099 37.1428 27.122 36.6763 27.122 36.2069C27.1852 36.2069 27.2485 36.2041 27.3117 36.2012H27.306Z" fill="white"/>
<path d="M37.683 38.1162C37.2806 38.1162 36.8753 38.1249 36.4728 38.1047C36.4297 38.1047 36.3578 37.9463 36.355 37.8628C36.3435 37.3963 36.3435 36.9269 36.3578 36.4604C36.3607 36.3682 36.4527 36.2099 36.5102 36.2041C36.8868 36.1811 37.2662 36.1926 37.6428 36.1926C37.6457 36.2531 37.6485 36.3106 37.6514 36.3711C37.4186 36.3884 37.1857 36.4114 36.9529 36.4172C36.7632 36.423 36.6223 36.4518 36.6223 36.6908C36.6223 36.8952 36.6741 37.0133 36.9069 37.0018C37.1282 36.9903 37.3496 37.0018 37.5709 37.0018C37.5709 37.0623 37.5709 37.1199 37.5738 37.1803C37.3726 37.189 37.1714 37.2149 36.973 37.2062C36.7287 37.1976 36.6166 37.2811 36.6137 37.5374C36.6137 37.788 36.6769 37.9377 36.9615 37.9233C37.2001 37.9118 37.4387 37.9233 37.6744 37.9233C37.6744 37.9895 37.6773 38.0558 37.6802 38.1191L37.683 38.1162Z" fill="white"/>
<path d="M33.3479 38.1566C32.911 38.0875 32.9024 37.6094 32.4396 37.6152C31.9998 37.6209 31.9595 38.0529 31.5283 38.171C31.7899 37.4741 32.0055 36.8751 32.2527 36.2905C32.27 36.2473 32.6178 36.2617 32.6437 36.3193C32.888 36.8952 33.0978 37.4885 33.3508 38.1594L33.3479 38.1566ZM32.4827 36.6159C32.4424 36.6159 32.4022 36.6217 32.3591 36.6245C32.2843 36.8693 32.2067 37.1112 32.1147 37.4078H32.7701C32.6638 37.1141 32.5718 36.8636 32.4827 36.6159Z" fill="white"/>
<path d="M22.4909 37.1773C22.2925 37.1889 22.0942 37.2177 21.8987 37.2061C21.6428 37.1946 21.5135 37.2781 21.5135 37.5546C21.5135 37.8166 21.6141 37.9376 21.8843 37.9203C22.1229 37.9059 22.3615 37.9203 22.6001 37.9203C22.6058 37.9721 22.6116 38.024 22.6173 38.0758C22.4592 38.096 22.304 38.1277 22.1459 38.1305C21.2663 38.142 21.2663 38.1392 21.2519 37.2781C21.249 37.0046 21.2404 36.7339 21.2519 36.4603C21.2577 36.3739 21.3238 36.2155 21.3698 36.2155C21.7636 36.1953 22.1603 36.204 22.5541 36.204C22.557 36.2587 22.5598 36.3134 22.5656 36.3653C22.4276 36.3854 22.2839 36.3912 22.1488 36.4286C21.9246 36.4862 21.5394 36.2385 21.5279 36.7108C21.5135 37.2061 21.9102 36.9441 22.1287 37.0017C22.2436 37.0305 22.3672 37.0247 22.4851 37.0334C22.4851 37.0823 22.4851 37.1313 22.4851 37.1802L22.4909 37.1773Z" fill="white"/>
<path d="M51.8662 38.1506C52.122 37.4768 52.3233 36.8922 52.5676 36.3249C52.6567 36.1147 52.8924 36.106 52.9844 36.3163C53.2345 36.8893 53.4386 37.4825 53.6887 38.1449C53.2604 38.0873 53.2173 37.615 52.766 37.6179C52.3204 37.6208 52.306 38.093 51.8662 38.1506ZM52.8522 36.6301C52.8033 36.6301 52.7516 36.6301 52.7027 36.633C52.6251 36.8778 52.5446 37.1226 52.4526 37.4134H53.1167C53.0189 37.1197 52.9356 36.8749 52.8522 36.6301Z" fill="white"/>
<path d="M42.1851 36.207C42.2081 36.2847 42.2455 36.3625 42.2484 36.4402C42.2541 36.7916 42.257 37.1429 42.2484 37.4913C42.234 37.9694 42.05 38.1479 41.5815 38.1566C41.0727 38.1652 40.8542 37.9982 40.8255 37.5317C40.8025 37.1573 40.8053 36.78 40.814 36.4028C40.814 36.3366 40.9002 36.2732 40.9462 36.207C40.9893 36.2732 41.064 36.3394 41.0669 36.4086C41.0813 36.734 41.0698 37.0565 41.0813 37.3819C41.0928 37.6814 41.1934 37.9291 41.5498 37.9291C41.9264 37.9291 41.9782 37.6612 41.9782 37.3646C41.9782 37.0795 41.9782 36.7916 41.9954 36.5065C42.0012 36.3999 42.0529 36.2962 42.0816 36.1897C42.1161 36.1926 42.1506 36.1955 42.1851 36.2012V36.207Z" fill="white"/>
<path d="M19.3946 37.1628C19.3946 37.0073 19.3946 36.8518 19.3946 36.6992C19.3946 36.4343 19.3113 36.1578 19.7683 36.1751C20.5617 36.2039 20.7687 36.296 20.7773 36.751C20.7831 37.1484 20.6077 37.3385 20.1334 37.327C19.7511 37.3183 19.6217 37.4537 19.662 37.8223C19.6706 37.9144 19.593 38.0181 19.5556 38.116C19.501 38.0181 19.4147 37.9231 19.4033 37.8223C19.3803 37.6063 19.3946 37.3846 19.3975 37.1657L19.3946 37.1628ZM19.6735 36.7856C19.6361 37.0332 19.7367 37.1542 19.9925 37.1283C20.2283 37.1024 20.4927 37.0822 20.4783 36.7654C20.4669 36.4976 20.2541 36.4256 20.0098 36.4141C19.731 36.3997 19.6361 36.5293 19.6706 36.7885L19.6735 36.7856Z" fill="white"/>
<path d="M11.9583 36.705C11.852 36.6445 11.7514 36.5725 11.6393 36.5293C11.5041 36.4775 11.3403 36.3882 11.2196 36.4228C10.8861 36.5178 10.7884 36.8115 10.7769 37.1254C10.7654 37.4364 10.8344 37.7302 11.1419 37.8857C11.3719 38.0009 11.5588 37.9087 11.7169 37.7129C11.7744 37.6409 11.8951 37.6208 11.9871 37.5776C11.9641 37.6899 11.9756 37.8655 11.9095 37.9001C11.7054 38.0124 11.4754 38.1276 11.2483 38.142C10.9034 38.1593 10.6676 37.9346 10.5613 37.6121C10.4175 37.1802 10.4549 36.7511 10.7596 36.4026C10.9896 36.1377 11.3202 36.0686 11.6479 36.2126C11.806 36.2817 11.9267 36.4314 12.0647 36.5466C12.0302 36.5984 11.9928 36.6503 11.9583 36.705Z" fill="white"/>
<path d="M47.218 37.3214C47.2065 36.4171 47.7498 35.9621 48.3994 36.2155C48.4914 36.253 48.5949 36.3106 48.6466 36.3883C48.6926 36.4546 48.6754 36.5669 48.684 36.6561C48.6035 36.6389 48.4971 36.6504 48.4454 36.6014C48.2614 36.4286 48.0775 36.3019 47.8274 36.4546C47.5169 36.6446 47.4422 36.9614 47.5112 37.2695C47.5629 37.497 47.7153 37.7504 47.8992 37.8772C47.9941 37.9405 48.2614 37.7562 48.4483 37.6813C48.5345 37.6468 48.6179 37.6065 48.7041 37.569C48.6955 37.6727 48.7185 37.7965 48.6696 37.8714C48.385 38.3034 47.6089 38.24 47.3588 37.7591C47.2726 37.5921 47.241 37.3934 47.2208 37.3214H47.218Z" fill="white"/>
<path d="M38.9561 37.1543C38.9561 37.1024 38.9561 37.0506 38.9561 36.9988C38.9532 36.1608 39.2033 35.9678 40.0111 36.2414C40.1519 36.2875 40.31 36.5121 40.3186 36.6618C40.3273 36.849 40.2037 37.0506 40.1059 37.2292C40.0743 37.2867 39.9421 37.3213 39.8616 37.3155C39.4275 37.2868 39.1745 37.4221 39.2349 37.9145C39.2407 37.9692 39.1401 38.0384 39.0912 38.0988C39.0481 38.0297 38.9762 37.9606 38.9705 37.8886C38.9561 37.6438 38.9647 37.3991 38.9647 37.1543C38.9647 37.1543 38.9618 37.1543 38.959 37.1543H38.9561ZM39.6431 37.2004C39.7811 37.065 40.0197 36.9412 40.0369 36.7914C40.0685 36.515 39.8213 36.4257 39.5626 36.4142C39.2953 36.4027 39.2407 36.5553 39.2407 36.7799C39.2407 37.0103 39.3068 37.16 39.6402 37.2004H39.6431Z" fill="white"/>
<path d="M45.1079 36.2271C45.1079 36.5007 45.1079 36.7714 45.1079 37.045C45.1117 37.5998 45.3848 37.8936 45.9271 37.9262C45.976 37.9291 46.022 37.9492 46.0709 37.9607C46.0766 38.0011 46.0795 38.0414 46.0853 38.0817C45.907 38.099 45.7288 38.1249 45.5506 38.1306C44.6911 38.1479 44.8549 38.1882 44.8434 37.4482C44.8377 37.1371 44.8434 36.8261 44.852 36.5151C44.8549 36.4143 44.8923 36.3164 44.9124 36.2185C44.9785 36.2214 45.0446 36.2271 45.1108 36.23L45.1079 36.2271Z" fill="white"/>
<path d="M49.2734 37.1657C49.2734 36.9066 49.2647 36.6503 49.2791 36.394C49.282 36.3277 49.3682 36.2701 49.4171 36.2068C49.4602 36.273 49.5436 36.3364 49.5436 36.4026C49.5551 36.9037 49.5551 37.4076 49.5436 37.9116C49.5436 37.9807 49.4631 38.0498 49.4171 38.116C49.3654 38.0441 49.2762 37.9749 49.2705 37.9001C49.2504 37.6553 49.2647 37.4105 49.2647 37.1657H49.2734Z" fill="white"/>
<path d="M46.5566 38.1276C46.5336 38.047 46.4934 37.9692 46.4934 37.8886C46.4905 37.4106 46.4876 36.9325 46.5049 36.4545C46.5078 36.3652 46.5969 36.2817 46.6486 36.1953C46.686 36.2788 46.7578 36.3595 46.7578 36.443C46.7693 36.9066 46.7665 37.3731 46.7578 37.8368C46.7578 37.9375 46.7119 38.0355 46.686 38.1334C46.6429 38.1334 46.5997 38.1276 46.5566 38.1247V38.1276Z" fill="white"/>
<path d="M29.1682 38.1306C29.1395 38.0442 29.0906 37.9607 29.0906 37.8743C29.082 37.3963 29.0791 36.9154 29.0906 36.4374C29.0906 36.3538 29.1941 36.2732 29.2487 36.1897C29.2889 36.2732 29.3608 36.3538 29.3637 36.4374C29.3752 36.878 29.3781 37.3186 29.3694 37.7592C29.3694 37.883 29.3119 38.0068 29.2803 38.1335C29.2429 38.1335 29.2056 38.1335 29.1653 38.1335L29.1682 38.1306Z" fill="white"/>
</svg>
