<svg width="126" height="108" viewBox="0 0 126 108" fill="none" xmlns="http://www.w3.org/2000/svg">
<path d="M31.3075 78.7594C34.2051 80.6368 37.0348 82.4746 40.0172 84.4028C39.5815 84.7365 39.2589 85.0022 38.9193 85.2397C38.2232 85.7317 38.2176 85.8222 38.8288 86.4499C42.6658 90.3743 47.2159 91.5617 52.4791 89.9897C54.5958 89.3564 56.6161 88.5252 58.2008 86.8966C59.1628 85.907 59.7514 84.7534 59.8193 83.3624C59.8872 82.0165 59.9495 80.6651 59.9552 79.3136C59.9552 78.7255 60.1476 78.5219 60.7135 78.6011C60.9399 78.635 61.1719 78.618 61.404 78.6124C62.6094 78.5954 62.6207 78.3862 62.6207 79.8621C62.6264 87.7674 62.6377 95.6671 62.6434 103.572C62.6434 103.968 62.6434 104.364 62.6434 104.98C60.8154 103.024 58.8007 101.757 56.6275 100.734C53.3846 99.207 49.9381 98.2683 46.5142 97.2448C42.8073 96.1421 39.2306 94.7341 36.1689 92.2799C34.9295 91.2847 33.7976 90.182 33.0619 88.7457C32.7959 88.2255 32.3488 88.2424 31.8847 88.2481C30.153 88.2763 30.4699 88.265 30.5604 86.8627C30.7302 84.318 30.9906 81.7847 31.2113 79.2457C31.2226 79.1213 31.2622 79.0026 31.3188 78.7538L31.3075 78.7594Z" fill="#FECC2B"/>
<path d="M64.5906 104.664C64.5623 104.194 64.5283 103.872 64.5283 103.555C64.5283 95.7292 64.534 87.8973 64.5396 80.0712C64.5396 79.7658 64.5283 79.4548 64.5736 79.1551C64.5962 79.0024 64.7321 78.7536 64.8283 78.7479C65.4848 78.714 66.1469 78.6971 66.7977 78.7649C66.9053 78.7762 67.0354 79.2173 67.0467 79.4605C67.1033 80.7328 67.1316 82.0051 67.1599 83.2774C67.2052 85.3131 68.2409 86.8456 69.8255 87.9256C73.1928 90.2214 76.945 91.2393 81.0027 90.4929C83.7419 89.9896 85.9264 88.3893 87.7996 86.3649C88.1562 85.9804 88.1109 85.6411 87.726 85.3244C87.5506 85.1774 87.3638 85.0473 87.1827 84.9003C87.0299 84.7759 86.8771 84.6402 86.6111 84.414C89.3673 82.5649 92.0611 80.761 94.8568 78.8893C94.953 79.3021 95.0323 79.517 95.0492 79.7375C95.236 82.3048 95.3945 84.872 95.6039 87.4393C95.6548 88.0613 95.4341 88.3158 94.8455 88.2196C93.8212 88.0557 93.3062 88.525 92.7402 89.3845C91.5008 91.2619 89.8143 92.6982 87.8336 93.8461C85.9037 94.9658 83.906 95.8931 81.8064 96.6056C80.1255 97.1824 78.3994 97.6348 76.7129 98.1946C72.808 99.4783 68.9483 100.852 65.7621 103.589C65.3999 103.9 65.066 104.234 64.5906 104.675V104.664Z" fill="#FECC2B"/>
<path d="M39.8646 58.4361C39.8985 58.0968 39.9551 57.7575 39.9551 57.4182C39.9777 53.2111 40.006 48.9983 39.9834 44.7912C39.9834 44.0278 40.1928 43.7394 40.9738 43.7959C41.8906 43.8581 42.8131 43.8355 43.7299 43.8129C44.2562 43.7959 44.46 43.9938 44.4543 44.5197C44.443 46.2784 44.4656 48.037 44.4656 49.8013C44.4713 54.3929 44.5109 58.9846 44.4543 63.5762C44.443 64.5432 44.2732 65.5837 43.877 66.4488C43.1526 68.0378 41.3699 68.3771 40.0343 67.2518C39.4627 66.7712 38.993 66.1265 38.6195 65.4762C36.452 61.7215 34.3297 57.9441 32.1905 54.1724C31.9754 53.7879 31.7207 53.426 31.4887 53.0527L31.285 53.1093C31.268 53.3977 31.2397 53.6804 31.2397 53.9688C31.2397 58.2042 31.2397 62.4396 31.2397 66.6694C31.2397 67.3366 30.9039 67.674 30.2323 67.6816C29.3155 67.6872 28.393 67.6363 27.4762 67.7042C26.7065 67.7607 26.4632 67.5232 26.4688 66.7372C26.5028 62.123 26.4858 57.503 26.4858 52.8888C26.4858 50.9492 26.4802 49.0096 26.4802 47.0757C26.4802 45.0117 26.899 44.2709 28.2798 43.8751C29.8079 43.4397 31.749 44.1691 32.564 45.5263C33.0733 46.3801 33.5261 47.2623 34.0015 48.1388C35.7785 51.4129 37.5499 54.6813 39.3269 57.9554C39.4231 58.1307 39.542 58.289 39.6495 58.453C39.7231 58.453 39.791 58.4417 39.8646 58.4361Z" fill="#FECC2B"/>
<path d="M103.64 67.6872C103.962 66.6637 104.228 65.7703 104.523 64.8882C106.549 58.7641 108.575 52.6456 110.612 46.5272C110.946 45.515 111.421 44.582 112.474 44.1183C114.132 43.3888 115.773 43.9826 116.549 45.6959C117.103 46.923 117.494 48.2236 117.918 49.5016C119.808 55.2129 121.687 60.9242 123.566 66.6411C123.668 66.9465 123.708 67.2631 123.798 67.6759C122.242 67.6759 120.793 67.6986 119.35 67.6477C119.146 67.642 118.869 67.3084 118.778 67.0652C118.269 65.7307 117.782 64.3905 117.341 63.0334C117.137 62.4114 116.815 62.1173 116.136 62.1343C114.506 62.1682 112.87 62.1626 111.235 62.1399C110.68 62.1343 110.408 62.3774 110.238 62.8807C109.786 64.2605 109.276 65.6233 108.829 67.0087C108.671 67.5063 108.405 67.6929 107.89 67.6872C106.52 67.6646 105.156 67.6816 103.645 67.6816L103.64 67.6872ZM113.815 50.8022C113.634 51.051 113.549 51.1245 113.527 51.2093C112.915 53.5165 112.304 55.8292 111.699 58.1364C111.574 58.6001 111.834 58.7301 112.231 58.7301C113.221 58.7301 114.217 58.7075 115.207 58.7471C115.909 58.7754 116.034 58.5153 115.853 57.8819C115.264 55.8292 114.715 53.7653 114.149 51.7126C114.076 51.4525 113.968 51.2093 113.821 50.8022H113.815Z" fill="#FECC2B"/>
<path d="M23.5428 67.6703C21.9299 67.6703 20.4585 67.6929 18.9927 67.642C18.7946 67.6363 18.5286 67.2801 18.4381 67.0313C17.9287 65.6685 17.442 64.3 16.9949 62.9203C16.8082 62.3322 16.4743 62.1173 15.88 62.1286C14.2501 62.1512 12.6146 62.1512 10.979 62.1286C10.3961 62.123 10.1075 62.3774 9.93204 62.9146C9.47364 64.2944 8.95864 65.6515 8.50023 67.0313C8.33611 67.5232 8.06446 67.7042 7.54946 67.6929C6.20253 67.6646 4.8556 67.6816 3.36719 67.6816C3.53697 67.0709 3.65581 66.5676 3.81994 66.07C5.97615 59.5614 8.13237 53.0584 10.3056 46.5554C10.6847 45.4188 11.2167 44.384 12.5014 44.0052C14.0917 43.5302 15.4726 44.0787 16.2083 45.5941C16.6157 46.4367 16.8874 47.3471 17.1873 48.2406C19.1738 54.2402 21.1489 60.2399 23.124 66.2453C23.2655 66.6694 23.3787 67.1048 23.5428 67.6703ZM13.4861 50.8022C13.3333 51.051 13.2258 51.1641 13.1918 51.2941C12.5919 53.5786 12.0034 55.8688 11.4035 58.1533C11.279 58.634 11.528 58.7414 11.9241 58.7414C12.9655 58.7414 14.0124 58.7414 15.0538 58.7527C15.6423 58.7584 15.7216 58.5039 15.5688 57.9837C14.9632 55.8575 14.3916 53.7257 13.7974 51.5938C13.7351 51.362 13.6219 51.1471 13.4861 50.8022Z" fill="#FECC2B"/>
<path d="M90.3797 54.5571C91.5229 53.9973 92.5756 53.5392 93.5716 52.9794C94.6016 52.4026 95.5807 51.7467 95.7901 50.4235C95.9938 49.1285 95.094 47.8223 93.7923 47.7431C92.4171 47.6583 91.0362 47.7148 89.661 47.7148C89.0724 47.7148 89.0441 48.1163 89.0441 48.5574C89.0554 54.297 89.0554 60.0365 89.0837 65.7704C89.0951 67.6817 89.129 67.6817 87.1935 67.6874C86.6332 67.6874 86.0673 67.6761 85.507 67.7044C85.0033 67.7326 84.8392 67.5234 84.8449 67.0314C84.8675 65.7817 84.8449 64.532 84.8449 63.2824C84.8449 57.5711 84.8449 51.8541 84.8449 46.1428C84.8449 44.7744 85.1392 44.3898 86.4974 44.1184C87.069 44.0053 87.6632 43.9714 88.2461 43.9657C90.2609 43.9544 92.2813 43.9997 94.296 43.9657C98.3424 43.8922 100.759 47.1041 99.7686 51.2321C99.2649 53.3243 98.0651 54.9303 96.0278 55.7785C95.4052 56.0386 95.4052 56.3609 95.6316 56.8981C97.0068 60.1383 98.3594 63.3841 99.7177 66.63C99.8422 66.924 99.9384 67.235 100.097 67.6704C98.6367 67.6704 97.2955 67.6817 95.9542 67.6535C95.8014 67.6535 95.5807 67.4556 95.5184 67.2972C93.798 63.0731 92.1002 58.8434 90.3684 54.5514L90.3797 54.5571Z" fill="#FECC2B"/>
<path d="M81.0651 55.9482C81.0651 57.8877 81.0594 59.8217 81.0651 61.7612C81.0764 64.4585 79.6729 66.5395 77.1205 67.3934C74.9077 68.1341 72.644 68.1002 70.4142 67.4556C68.241 66.8335 66.0678 64.4359 66.198 61.6481C66.3791 57.8086 66.3621 53.9464 66.2093 50.1011C66.1017 47.4265 68.1674 45.1589 70.0293 44.5538C72.8251 43.6491 75.683 43.4512 78.309 45.0515C80.1143 46.1485 81.2292 47.7431 81.0934 50.0559C80.9745 52.0124 81.0708 53.9803 81.0708 55.9425L81.0651 55.9482ZM76.747 56.0104H76.7583C76.7583 54.1217 76.7527 52.2386 76.7583 50.35C76.764 49.219 76.215 48.4726 75.2246 48.0089C74.1324 47.5 73.0571 47.5395 71.9818 48.0881C71.1046 48.5348 70.6179 49.219 70.6179 50.2142C70.6179 54.0651 70.6066 57.916 70.6123 61.7669C70.6123 62.5077 70.9405 63.0901 71.546 63.5199C72.5534 64.2324 73.6513 64.3907 74.8228 64.0344C76.1754 63.6216 76.7413 62.8583 76.747 61.4446C76.7583 59.6351 76.747 57.8255 76.747 56.0104Z" fill="#FECC2B"/>
<path d="M63.2656 4.89697C63.2656 5.65471 63.2656 6.28239 63.2656 6.90441C63.2656 8.40857 63.2996 9.91273 63.2373 11.4169C63.2203 11.7788 62.9883 12.2368 62.7053 12.4743C61.7829 13.2434 61.5452 13.8089 62.1224 14.855C62.6035 15.7258 62.7166 16.6136 62.711 17.5693C62.677 24.0213 62.6714 30.4734 62.6431 36.9255C62.6431 37.31 62.5865 37.9772 62.4167 38.0225C61.8734 38.1752 61.2622 38.1299 60.6849 38.0847C60.5887 38.079 60.4586 37.6719 60.4529 37.4514C60.4359 36.2808 60.4359 35.1046 60.4642 33.9341C60.4812 33.329 60.2831 33.0633 59.6323 33.0689C57.1818 33.0972 54.7313 33.0972 52.2808 33.0802C51.6866 33.0802 51.4036 33.2273 51.3753 33.8832C51.3413 34.754 51.047 34.9689 50.1925 34.7484C48.2117 34.2281 46.6271 33.1028 45.5405 31.3725C44.6916 30.021 44.9576 28.5847 46.3554 27.7987C47.7873 26.9957 49.3719 26.4642 50.9056 25.8478C51.047 25.7913 51.4262 25.9666 51.4772 26.1136C51.7884 27.0297 52.2864 27.2219 53.2995 27.1371C55.1727 26.9788 57.0686 27.1371 58.9588 27.1654C59.2418 27.1654 59.5191 27.1654 59.8021 27.1767C60.402 27.2106 60.5661 26.9279 60.5887 26.3454C60.7019 23.2692 60.136 20.3175 59.089 17.4392C58.6532 16.246 58.3193 15.0077 58.0137 13.7749C57.9175 13.3961 57.9401 12.8702 58.1382 12.5535C59.7115 10.0541 61.3414 7.58298 62.96 5.11185C62.9826 5.07227 63.0392 5.05531 63.2713 4.90263L63.2656 4.89697Z" fill="#FECC2B"/>
<path d="M64.1604 5.20239C64.7433 6.07888 65.3432 6.94971 65.9092 7.84316C66.8996 9.40952 67.8843 10.9815 68.8181 12.5875C68.9992 12.8928 69.0614 13.3735 68.9652 13.7184C68.3031 16.15 67.4429 18.5363 66.9279 20.9961C66.5487 22.8226 66.5713 24.7339 66.4581 26.6056C66.4298 27.1145 66.8599 27.1711 67.2787 27.1654C69.2708 27.1485 71.2573 27.1428 73.2494 27.1315C73.4531 27.1315 73.6851 27.0806 73.8549 27.1541C74.6812 27.516 75.0094 26.9505 75.2075 26.3681C75.366 25.9157 75.6093 25.7517 75.9828 25.8988C77.3694 26.4586 78.8238 26.9223 80.0859 27.697C81.9365 28.8279 81.829 30.5074 80.516 32.1077C79.4747 33.3687 78.1787 34.2791 76.5657 34.6975C75.8017 34.8955 75.4961 34.7315 75.4509 33.9511C75.4112 33.2895 75.1056 33.0859 74.4774 33.0859C72.1288 33.1029 69.7802 33.0916 67.4315 33.0746C66.826 33.0746 66.543 33.2612 66.5657 33.9172C66.6053 35.0368 66.5374 36.1621 66.5883 37.2818C66.6279 38.2261 65.9884 38.1017 65.4111 38.1469C64.8226 38.1865 64.4547 38.0734 64.4547 37.3383C64.4547 30.4282 64.4151 23.5181 64.4321 16.608C64.4321 16.0821 64.7377 15.5449 64.9641 15.0417C65.5017 13.8655 65.3489 13.2321 64.3132 12.4065C64.1321 12.2595 63.9341 11.9994 63.9284 11.7902C63.9001 9.63006 63.9114 7.46995 63.9114 5.30983C63.9906 5.2759 64.0755 5.24763 64.1548 5.2137L64.1604 5.20239Z" fill="#FECC2B"/>
<path d="M62.4395 61.1221C62.564 63.876 61.2058 67.3197 56.8367 67.8117C54.2617 68.1001 51.7886 67.7042 49.638 66.1096C48.3251 65.137 47.7025 63.8477 47.7308 62.1626C47.7931 58.0572 47.8101 53.9519 47.7308 49.8465C47.6912 47.8278 48.5345 46.3915 50.1813 45.4076C52.8469 43.8186 55.7105 43.5019 58.6477 44.4971C60.8888 45.2605 62.4904 47.7147 62.4904 50.0897C62.4904 50.6099 62.2867 50.7513 61.8113 50.74C60.9964 50.7174 60.1758 50.7061 59.3608 50.7456C58.7836 50.7739 58.5232 50.5873 58.3534 49.9992C57.6743 47.709 54.6522 46.8382 52.8808 48.4498C52.4564 48.8343 52.0999 49.5299 52.0885 50.0897C52.0206 53.9915 52.0319 57.8932 52.0772 61.795C52.0829 62.2813 52.3319 62.8638 52.6658 63.2257C54.3296 65.0408 57.6234 64.3057 58.3365 61.9533C58.5402 61.2748 58.8571 61.0769 59.5136 61.1108C60.4757 61.156 61.4378 61.1221 62.4452 61.1221H62.4395Z" fill="#FECC2B"/>
<path d="M20.0172 42.3484C18.574 42.3484 17.278 42.371 15.9821 42.3314C15.7444 42.3258 15.4727 42.1222 15.2916 41.9356C14.8162 41.4436 14.3635 40.9178 13.9334 40.3862C13.6108 39.9904 13.2825 39.8207 13.0109 40.3749C11.7319 42.9817 9.41719 42.3823 7.07422 42.2862C7.60054 41.5398 8.04763 40.8838 8.51736 40.2448C9.36626 39.0969 10.2038 37.9377 11.1037 36.835C11.3244 36.5579 11.7545 36.3318 12.1054 36.3035C13.0675 36.23 14.0466 36.2469 15.0086 36.2978C15.2973 36.3148 15.6708 36.4788 15.8462 36.705C17.1762 38.4127 18.4722 40.1487 19.7738 41.8791C19.8474 41.9752 19.887 42.0939 20.0172 42.3541V42.3484Z" fill="#FECC2B"/>
<path d="M86.9847 72.8671C87.0809 73.3195 87.3752 73.8793 87.2111 74.1903C87.03 74.5353 86.4301 74.818 85.9943 74.8463C84.2965 74.9537 84.2965 74.9141 84.2852 73.229C84.2852 72.9237 84.2456 72.6127 84.2852 72.3186C84.3418 71.9002 84.4493 71.1311 84.5455 71.1311C85.3095 71.1198 86.1584 71.0746 86.8149 71.3912C87.4601 71.6966 87.047 72.3582 86.6961 72.8332C86.7923 72.8445 86.8828 72.8558 86.979 72.8671H86.9847ZM85.6717 74.4674C86.1641 74.4504 86.7244 74.4109 86.6961 73.7549C86.6678 73.0594 86.0566 73.099 85.5472 73.065C85.0605 73.0368 84.8115 73.1725 84.8115 73.7379C84.8115 74.3882 85.1228 74.524 85.6774 74.4618L85.6717 74.4674ZM85.5812 72.6579C85.6265 72.7144 85.6717 72.771 85.717 72.8332C85.9943 72.59 86.4754 72.3695 86.5093 72.0981C86.5716 71.5326 86.0509 71.4817 85.5925 71.4874C85.2133 71.493 84.8228 71.4421 84.8115 72.0359C84.8002 72.6183 85.1001 72.7258 85.5812 72.6579Z" fill="#FECC2B"/>
<path d="M52.2754 75.0216C51.7208 74.9877 51.0077 74.9877 50.3059 74.8916C49.3495 74.7672 48.8175 73.8341 48.9647 72.6579C49.1062 71.5213 49.7853 70.9163 50.8436 70.9785C51.8623 71.035 52.5131 71.8097 52.4961 72.9803C52.4961 73.2573 52.3886 73.5288 52.3603 73.8059C52.3207 74.196 52.3037 74.5862 52.2754 75.0216ZM50.8209 74.0207C51.1945 73.9303 51.568 73.9529 51.7321 73.7776C52.1056 73.3818 51.9755 72.3017 51.5623 71.8606C51.1775 71.4535 50.7361 71.2951 50.1984 71.6062C49.6098 71.9511 49.3382 72.8389 49.6155 73.6306C49.8192 74.2073 50.1871 74.5636 50.9002 74.4505C50.8606 74.2526 50.8323 74.0886 50.8209 74.0207Z" fill="#FECC2B"/>
<path d="M17.3743 72.46C17.3347 73.2516 17.2951 74.0433 17.2611 74.835C17.1536 74.835 17.0461 74.835 16.9385 74.8293C16.9159 74.5013 16.8706 74.1734 16.8706 73.851C16.8706 73.1385 16.8593 72.426 16.8989 71.7135C16.9103 71.5043 17.0687 71.3007 17.1593 71.0972C17.346 71.2442 17.5837 71.3516 17.7082 71.5439C18.127 72.1998 18.5119 72.8784 18.9023 73.5513C18.9872 73.54 19.0665 73.5287 19.1514 73.5174C19.174 72.9406 19.174 72.3638 19.2249 71.787C19.2419 71.5609 19.3608 71.346 19.4343 71.1311C19.5362 71.3516 19.7116 71.5665 19.723 71.787C19.7569 72.6239 19.7456 73.4665 19.7173 74.3034C19.7116 74.4957 19.5532 74.6766 19.4626 74.8632C19.2759 74.7558 19.0212 74.6936 18.9137 74.5353C18.4609 73.8397 18.0534 73.1159 17.629 72.4034C17.5441 72.4204 17.4592 72.443 17.3743 72.46Z" fill="#FECC2B"/>
<path d="M31.0922 73.2008C31.4488 73.7436 31.7657 74.2243 32.0826 74.6993C32.026 74.7728 31.9694 74.8463 31.9128 74.9198C31.6865 74.7672 31.4261 74.6541 31.2507 74.4618C30.9791 74.1621 30.8093 73.7663 30.5206 73.4892C30.3452 73.3195 30.0339 73.2064 29.7962 73.2234C29.6887 73.2291 29.5755 73.6136 29.5303 73.8454C29.468 74.1734 29.468 74.5127 29.4454 74.852C29.3605 74.8633 29.2756 74.8802 29.1964 74.8916C29.1228 74.7163 28.9926 74.5466 28.9926 74.3713C28.9813 73.4553 29.0153 72.5335 28.9926 71.6175C28.987 71.1764 29.1681 71.0181 29.5812 71.0407C30.017 71.0633 30.4471 71.0803 30.8828 71.0916C31.3526 71.1029 31.8393 71.2329 31.8506 71.7475C31.8619 72.1433 31.6072 72.5505 31.4375 72.9407C31.3978 73.0425 31.245 73.0933 31.0922 73.2008ZM30.2716 72.788C30.7187 72.7258 31.3413 72.8445 31.3413 72.1433C31.3413 71.5213 30.8093 71.5157 30.3395 71.5044C29.9094 71.4931 29.5246 71.4874 29.5189 72.0981C29.5189 72.6353 29.7623 72.8332 30.2716 72.7823V72.788Z" fill="#FECC2B"/>
<path d="M98.5519 72.9235C98.5519 72.6181 98.5519 72.3128 98.5519 72.0074C98.5519 71.3552 98.8915 71.0367 99.5706 71.0518C101.263 71.0914 102.14 72.6973 101.285 74.1958C100.963 74.767 100.425 74.8744 99.8479 74.8687C98.3312 74.8574 98.5236 75.0384 98.5293 73.6077C98.5293 73.3815 98.5293 73.1497 98.5293 72.9235H98.5462H98.5519ZM101.008 72.7312C100.968 72.6012 100.951 72.1375 100.725 71.9735C100.374 71.719 99.8762 71.6116 99.4348 71.5777C99.3329 71.572 99.1178 72.1092 99.0839 72.4089C99.0273 72.8839 99.0952 73.3702 99.0839 73.8509C99.0726 74.3146 99.2989 74.4729 99.7347 74.4729C100.595 74.4729 101.014 73.9866 101.008 72.7256V72.7312Z" fill="#FECC2B"/>
<path d="M28.1043 73.0085C28.0929 74.2752 27.4987 74.9198 26.3499 74.9255C25.235 74.9255 24.5502 74.1904 24.5728 73.0142C24.5954 71.7532 25.2689 70.9898 26.3555 70.9841C27.4704 70.9841 28.1156 71.7249 28.1043 73.0085ZM27.5836 72.9633C27.5836 72.1264 27.0686 71.4648 26.3951 71.4422C25.7273 71.4195 25.1444 72.132 25.1331 72.9859C25.1218 73.8002 25.6594 74.4731 26.3329 74.4957C27.0346 74.5184 27.5779 73.8567 27.5836 72.9633Z" fill="#FECC2B"/>
<path d="M106.408 72.9632C106.408 72.8105 106.362 72.6352 106.413 72.5108C106.623 72.0245 105.864 71.1197 107.019 71.0519C108.711 70.9614 109.26 71.3177 109.424 72.5674C109.662 74.3938 108.456 75.4117 106.685 74.8519C106.555 74.8123 106.419 74.5691 106.402 74.4108C106.368 73.9301 106.391 73.4438 106.391 72.9632H106.408ZM106.951 72.9349C106.951 73.1894 106.973 73.4438 106.951 73.6983C106.872 74.4391 107.29 74.5635 107.89 74.4787C108.75 74.3543 109.158 73.3703 108.807 72.2733C108.626 71.7022 108.071 71.4081 107.404 71.5212C106.781 71.623 106.99 72.1093 106.956 72.4825C106.945 72.6352 106.956 72.7879 106.956 72.9406L106.951 72.9349Z" fill="#FECC2B"/>
<path d="M61.2172 72.0414C61.0135 71.917 60.8154 71.77 60.6004 71.6795C60.3344 71.572 60.0401 71.442 59.7684 71.4589C59.5987 71.4703 59.3497 71.7191 59.3214 71.8887C59.2987 72.0301 59.5081 72.2902 59.6722 72.375C60.0118 72.5446 60.391 72.6295 60.7532 72.7539C61.3021 72.9405 61.6077 73.3024 61.5342 73.9018C61.4663 74.4842 61.0927 74.8179 60.5325 74.8914C59.8873 74.9818 59.2365 74.9649 58.812 74.3542C58.7215 74.2241 58.7724 73.9866 58.7611 73.8C58.9252 73.8565 59.112 73.8905 59.2534 73.9866C59.4176 74.094 59.5194 74.3202 59.6892 74.3938C60.1589 74.586 60.64 74.5521 60.872 74.0488C61.121 73.506 60.6513 73.3533 60.2665 73.2063C59.9609 73.0875 59.5647 73.0875 59.344 72.8839C59.0723 72.6408 58.7384 72.211 58.7837 71.9226C58.8403 71.589 59.2365 71.1875 59.576 71.0575C60.374 70.7464 61.0701 71.1197 61.2116 72.0357L61.2172 72.0414Z" fill="#FECC2B"/>
<path d="M45.3936 73.5682C45.7048 73.8509 45.852 74.0658 46.05 74.145C46.4009 74.2864 46.7858 74.4108 47.1593 74.4051C47.3121 74.4051 47.5498 74.0658 47.5837 73.8566C47.6064 73.6983 47.4083 73.4268 47.2385 73.3364C46.9555 73.1837 46.616 73.1384 46.2991 73.031C45.7784 72.8557 45.3596 72.5673 45.4162 71.9453C45.4728 71.295 45.9312 71.0518 46.5198 70.9896C47.3574 70.8992 47.8384 71.2045 47.9912 72.0697C47.7139 71.9227 47.5328 71.8039 47.3347 71.7304C47.0461 71.623 46.7405 71.4816 46.4405 71.4816C46.2821 71.4816 46.0217 71.7417 45.9934 71.9114C45.9708 72.0527 46.1915 72.3015 46.3613 72.392C46.6726 72.5504 47.0291 72.6239 47.3687 72.737C47.9629 72.9292 48.2459 73.3307 48.178 73.9527C48.11 74.5521 47.7082 74.8292 47.1536 74.914C46.0783 75.0837 45.4332 74.6822 45.3936 73.5739V73.5682Z" fill="#FECC2B"/>
<path d="M68.9256 72.1545C68.5917 71.9397 68.4333 71.7983 68.2465 71.7304C67.9409 71.623 67.6127 71.5042 67.2957 71.5156C67.1599 71.5156 67.0297 71.8266 66.8939 71.9906C67.1712 72.1885 67.4259 72.4147 67.7258 72.573C67.9692 72.703 68.2748 72.7087 68.5238 72.8331C69.1577 73.1441 69.3897 74.1167 68.8407 74.4899C68.4106 74.784 67.7655 74.8801 67.2165 74.8745C66.6789 74.8745 66.3393 74.4447 66.3336 73.7266C66.5204 73.8397 66.7072 73.9697 66.9052 74.0715C67.2108 74.2242 67.5221 74.456 67.8334 74.456C68.0598 74.456 68.4163 74.1676 68.4672 73.9471C68.5125 73.7605 68.2522 73.4269 68.0371 73.2798C67.8221 73.1272 67.5051 73.1328 67.2391 73.0423C66.6902 72.8557 66.2544 72.556 66.345 71.8944C66.4355 71.2498 66.9166 71.0292 67.4995 70.9897C68.3314 70.9331 68.7445 71.2102 68.92 72.1545H68.9256Z" fill="#FECC2B"/>
<path d="M112.825 73.0706C112.418 73.0706 112.005 73.0933 111.597 73.0706C111.026 73.0311 110.924 73.3477 110.918 73.8284C110.907 74.343 111.156 74.4956 111.625 74.473C112.078 74.4504 112.531 74.473 112.984 74.473C113.001 74.5578 113.018 74.6427 113.035 74.7275C112.763 74.7784 112.491 74.8688 112.214 74.8802C110.363 74.9537 110.363 74.948 110.363 73.1385C110.363 73.0141 110.352 72.884 110.363 72.7596C110.414 72.2168 110.38 71.2442 110.545 71.2102C111.32 71.0462 112.146 71.1367 112.955 71.1367C112.955 71.2385 112.967 71.3403 112.972 71.4364C112.531 71.4703 112.084 71.4534 111.659 71.5495C111.399 71.6117 111.043 71.7927 110.963 72.0075C110.822 72.3751 110.98 72.7031 111.495 72.6748C111.937 72.6522 112.378 72.6748 112.82 72.6748C112.82 72.8105 112.825 72.9519 112.831 73.0876L112.825 73.0706Z" fill="#FECC2B"/>
<path d="M36.1685 74.9197C35.3139 74.767 35.229 73.8849 34.3632 73.8736C33.4577 73.8622 33.4294 74.7953 32.5635 74.9367C32.8351 74.2015 33.0615 73.6021 33.2822 73.0027C33.4746 72.4768 33.6557 71.9453 33.8708 71.4307C34.0575 70.9727 34.5556 70.8652 34.731 71.2611C35.229 72.409 35.6535 73.5965 36.1685 74.9253V74.9197ZM33.6727 73.506C34.1934 73.4777 34.5386 73.4608 35.0083 73.4381C34.7876 72.8331 34.6235 72.3694 34.4537 71.9114C34.3745 71.9227 34.3009 71.9283 34.2217 71.9396C34.0632 72.3977 33.8991 72.8501 33.6727 73.506Z" fill="#FECC2B"/>
<path d="M16.1408 74.8746C15.5862 74.7332 12.9999 74.7276 12.6377 74.9029C12.7339 74.5523 12.7848 74.3035 12.8697 74.0716C13.181 73.2121 13.4923 72.3469 13.8375 71.4987C13.9111 71.3234 14.1204 71.1311 14.3015 71.0916C14.4374 71.0576 14.7147 71.216 14.7713 71.3573C15.2297 72.477 15.6541 73.6192 16.1408 74.8746ZM14.8109 73.5401C14.8675 73.4666 14.9241 73.3874 14.975 73.3139C14.7769 72.8502 14.5845 72.3808 14.3864 71.9172C14.2902 71.9285 14.1997 71.9454 14.1035 71.9567C14.0129 72.4261 13.9224 72.9011 13.8318 73.3704C14.1544 73.427 14.4826 73.4835 14.8052 73.5401H14.8109Z" fill="#FECC2B"/>
<path d="M53.7582 71.0859C53.7979 71.3065 53.8658 71.5327 53.8714 71.7589C53.8941 72.3696 53.8601 72.9803 53.8997 73.5853C53.9393 74.1338 54.2393 74.4901 54.8335 74.4844C55.4278 74.4844 55.6145 74.0716 55.6315 73.5684C55.6541 72.9068 55.6258 72.2452 55.6655 71.5892C55.6768 71.4196 55.8635 71.2612 55.9711 71.0972C56.0446 71.2612 56.1861 71.4252 56.1918 71.5892C56.2088 72.3243 56.2257 73.0651 56.1805 73.8002C56.1295 74.6088 55.7334 74.9199 54.8618 74.9312C53.9337 74.9425 53.4583 74.6371 53.4074 73.8511C53.3508 72.935 53.3961 72.019 53.3961 71.0972C53.5206 71.0972 53.6451 71.0916 53.7696 71.0859H53.7582Z" fill="#FECC2B"/>
<path d="M74.1886 74.8463C73.3963 74.8463 72.5983 74.8632 71.806 74.8236C71.7211 74.8236 71.5796 74.5126 71.5739 74.3486C71.5513 73.4326 71.5513 72.5108 71.5796 71.5948C71.5853 71.4138 71.7664 71.1028 71.8796 71.0915C72.6209 71.0463 73.368 71.0689 74.1093 71.0689C74.115 71.1876 74.1207 71.3007 74.1263 71.4195C73.6679 71.4534 73.2095 71.4986 72.7511 71.51C72.3776 71.5213 72.1003 71.5778 72.1003 72.0472C72.1003 72.4486 72.2021 72.6805 72.6605 72.6579C73.0963 72.6353 73.5321 72.6579 73.9679 72.6579C73.9679 72.7766 73.9679 72.8897 73.9735 73.0085C73.5774 73.0254 73.1812 73.0763 72.7907 73.0594C72.3097 73.0424 72.0889 73.2064 72.0833 73.7097C72.0833 74.2016 72.2078 74.4957 72.7681 74.4674C73.2378 74.4448 73.7075 74.4674 74.1716 74.4674C74.1716 74.5974 74.1773 74.7275 74.1829 74.8519L74.1886 74.8463Z" fill="#FECC2B"/>
<path d="M65.6546 74.9255C64.7944 74.7898 64.7774 73.8511 63.8663 73.8624C63.0004 73.8737 62.9212 74.7219 62.0723 74.9538C62.5873 73.5853 63.0117 72.4091 63.4984 71.2612C63.5324 71.1764 64.2172 71.2047 64.2681 71.3178C64.7491 72.4487 65.1623 73.6136 65.6603 74.9312L65.6546 74.9255ZM63.9512 71.9002C63.8719 71.9002 63.7927 71.9115 63.7078 71.9172C63.5607 72.3978 63.4079 72.8728 63.2268 73.4553H64.5171C64.3077 72.8785 64.1266 72.3865 63.9512 71.9002Z" fill="#FECC2B"/>
<path d="M44.2787 73.0028C43.8883 73.0254 43.4978 73.082 43.1129 73.0594C42.6092 73.0367 42.3546 73.2007 42.3546 73.7436C42.3546 74.2582 42.5526 74.4957 43.0846 74.4617C43.5544 74.4335 44.0241 74.4617 44.4938 74.4617C44.5051 74.5635 44.5164 74.6653 44.5278 74.7671C44.2165 74.8067 43.9109 74.8689 43.5996 74.8745C41.8679 74.8971 41.8679 74.8915 41.8396 73.2007C41.8339 72.6635 41.8169 72.132 41.8396 71.5948C41.8509 71.4251 41.981 71.1141 42.0716 71.1141C42.8469 71.0745 43.6279 71.0915 44.4033 71.0915C44.4089 71.1989 44.4146 71.3064 44.4259 71.4082C44.1542 71.4478 43.8713 71.4591 43.6053 71.5326C43.1639 71.6457 42.4055 71.1594 42.3829 72.0867C42.3546 73.0594 43.1356 72.5448 43.5657 72.6579C43.792 72.7144 44.0354 72.7031 44.2674 72.7201C44.2674 72.8162 44.2674 72.9123 44.2674 73.0085L44.2787 73.0028Z" fill="#FECC2B"/>
<path d="M102.112 74.9141C102.616 73.5908 103.012 72.4429 103.493 71.329C103.669 70.9162 104.133 70.8992 104.314 71.312C104.806 72.4373 105.208 73.6022 105.7 74.9028C104.857 74.7897 104.772 73.8623 103.884 73.8679C103.006 73.8736 102.978 74.801 102.112 74.9141ZM104.053 71.9284C103.957 71.9284 103.855 71.9284 103.759 71.934C103.606 72.4147 103.448 72.8953 103.267 73.4664H104.574C104.382 72.8897 104.218 72.409 104.053 71.9284Z" fill="#FECC2B"/>
<path d="M83.0509 71.0972C83.0961 71.2498 83.1697 71.4025 83.1754 71.5552C83.1867 72.2451 83.1923 72.935 83.1754 73.6192C83.1471 74.5579 82.7849 74.9085 81.8624 74.9254C80.8607 74.9424 80.4306 74.6144 80.374 73.6983C80.3287 72.9632 80.3344 72.2225 80.3513 71.4817C80.3513 71.3516 80.5211 71.2272 80.6117 71.0972C80.6966 71.2272 80.8437 71.3573 80.8494 71.493C80.8777 72.132 80.855 72.7653 80.8777 73.4043C80.9003 73.9924 81.0984 74.4787 81.8001 74.4787C82.5415 74.4787 82.6434 73.9528 82.6434 73.3704C82.6434 72.8106 82.6434 72.2451 82.6773 71.6853C82.6887 71.476 82.7905 71.2725 82.8471 71.0632C82.915 71.0689 82.9829 71.0745 83.0509 71.0859V71.0972Z" fill="#FECC2B"/>
<path d="M38.1836 72.9745C38.1836 72.6692 38.1836 72.3638 38.1836 72.0641C38.1836 71.5439 38.0195 71.001 38.9193 71.035C40.4813 71.0915 40.8888 71.2725 40.9058 72.1659C40.9171 72.9463 40.5719 73.3195 39.6381 73.2969C38.8854 73.2799 38.6307 73.5457 38.7099 74.2695C38.7269 74.4504 38.5741 74.654 38.5005 74.8463C38.393 74.654 38.2232 74.4674 38.2006 74.2695C38.1553 73.8454 38.1836 73.41 38.1893 72.9802L38.1836 72.9745ZM38.7326 72.2338C38.659 72.7201 38.8571 72.9576 39.3607 72.9067C39.8248 72.8558 40.3455 72.8162 40.3172 72.1942C40.2945 71.6683 39.8757 71.5269 39.3947 71.5043C38.8457 71.476 38.659 71.7305 38.7269 72.2394L38.7326 72.2338Z" fill="#FECC2B"/>
<path d="M23.5433 72.0754C23.3339 71.9567 23.1359 71.8153 22.9151 71.7305C22.6492 71.6287 22.3266 71.4534 22.0889 71.5213C21.4324 71.7079 21.24 72.2847 21.2173 72.901C21.1947 73.5117 21.3305 74.0885 21.9361 74.3939C22.3888 74.6201 22.7567 74.4391 23.0679 74.0546C23.1811 73.9132 23.4188 73.8737 23.5999 73.7888C23.5547 74.0094 23.5773 74.3543 23.4471 74.4222C23.0453 74.6427 22.5926 74.8689 22.1455 74.8972C21.4663 74.9311 21.0023 74.49 20.7929 73.8567C20.5099 73.0085 20.5835 72.1659 21.1834 71.4817C21.6361 70.9615 22.287 70.8257 22.9321 71.1085C23.2434 71.2442 23.4811 71.5382 23.7527 71.7644C23.6848 71.8662 23.6112 71.968 23.5433 72.0754Z" fill="#FECC2B"/>
<path d="M92.9603 73.2855C92.9377 71.5099 94.0073 70.6165 95.2863 71.1141C95.4674 71.1876 95.6711 71.3007 95.773 71.4534C95.8636 71.5835 95.8296 71.804 95.8466 71.9793C95.6881 71.9454 95.4787 71.968 95.3769 71.8718C95.0147 71.5326 94.6525 71.2838 94.1601 71.5835C93.5489 71.9567 93.4017 72.5787 93.5376 73.1837C93.6394 73.6305 93.9394 74.1281 94.3016 74.3769C94.4883 74.5013 95.0147 74.1394 95.3825 73.9924C95.5523 73.9245 95.7164 73.8454 95.8862 73.7718C95.8692 73.9754 95.9145 74.2186 95.8183 74.3656C95.258 75.2138 93.73 75.0894 93.2376 74.1451C93.0678 73.8171 93.0056 73.4269 92.966 73.2855H92.9603Z" fill="#FECC2B"/>
<path d="M76.6954 72.9574C76.6954 72.8556 76.6954 72.7539 76.6954 72.6521C76.6897 71.0065 77.1821 70.6277 78.7723 71.1649C79.0497 71.2553 79.3609 71.6964 79.3779 71.9905C79.3949 72.358 79.1515 72.7539 78.9591 73.1044C78.8969 73.2175 78.6365 73.2854 78.4781 73.2741C77.6235 73.2175 77.1255 73.4833 77.2443 74.4503C77.2556 74.5577 77.0576 74.6934 76.9614 74.8122C76.8765 74.6765 76.735 74.5408 76.7237 74.3994C76.6954 73.9187 76.7123 73.4381 76.7123 72.9574C76.7123 72.9574 76.7067 72.9574 76.701 72.9574H76.6954ZM78.0479 73.0479C78.3196 72.7821 78.7893 72.539 78.8233 72.2449C78.8855 71.7021 78.3988 71.5268 77.8895 71.5042C77.3632 71.4815 77.2556 71.7812 77.2556 72.2223C77.2556 72.6747 77.3858 72.9687 78.0423 73.0479H78.0479Z" fill="#FECC2B"/>
<path d="M88.8069 71.1366C88.8069 71.6738 88.8069 72.2053 88.8069 72.7425C88.8145 73.832 89.3521 74.4088 90.4199 74.4729C90.5161 74.4785 90.6066 74.5181 90.7028 74.5408C90.7142 74.6199 90.7198 74.6991 90.7311 74.7783C90.3803 74.8122 90.0294 74.8631 89.6785 74.8744C87.9863 74.9083 88.3089 74.9875 88.2863 73.5342C88.275 72.9235 88.2863 72.3128 88.3033 71.7021C88.3089 71.5042 88.3825 71.3119 88.4221 71.1196C88.5523 71.1253 88.6824 71.1366 88.8126 71.1422L88.8069 71.1366Z" fill="#FECC2B"/>
<path d="M97.0072 72.9802C97.0072 72.4713 96.9903 71.968 97.0186 71.4647C97.0242 71.3347 97.194 71.2216 97.2902 71.0972C97.3751 71.2272 97.5392 71.3516 97.5392 71.4817C97.5619 72.4656 97.5619 73.4552 97.5392 74.4448C97.5392 74.5805 97.3808 74.7162 97.2902 74.8463C97.1883 74.7049 97.0129 74.5692 97.0016 74.4222C96.962 73.9415 96.9903 73.4608 96.9903 72.9802H97.0072Z" fill="#FECC2B"/>
<path d="M91.6591 74.8688C91.6138 74.7105 91.5346 74.5578 91.5346 74.3995C91.5289 73.4608 91.5232 72.5221 91.5572 71.5834C91.5628 71.4081 91.7383 71.2441 91.8402 71.0745C91.9137 71.2385 92.0552 71.3968 92.0552 71.5608C92.0779 72.4712 92.0722 73.3873 92.0552 74.2977C92.0552 74.4956 91.9647 74.6878 91.9137 74.8801C91.8288 74.8801 91.7439 74.8688 91.6591 74.8631V74.8688Z" fill="#FECC2B"/>
<path d="M57.4255 74.8745C57.369 74.7049 57.2727 74.5409 57.2727 74.3713C57.2558 73.4326 57.2501 72.4882 57.2727 71.5495C57.2727 71.3856 57.4765 71.2272 57.584 71.0632C57.6632 71.2272 57.8047 71.3856 57.8104 71.5495C57.833 72.4147 57.8387 73.2799 57.8217 74.1451C57.8217 74.3882 57.7085 74.6314 57.6463 74.8802C57.5727 74.8802 57.4991 74.8802 57.4199 74.8802L57.4255 74.8745Z" fill="#FECC2B"/>
</svg>
